<?xml version="1.0" standalone="no"?>
<!DOCTYPE svg PUBLIC "-//W3C//DTD SVG 20010904//EN"
 "http://www.w3.org/TR/2001/REC-SVG-20010904/DTD/svg10.dtd">
<svg version="1.0" xmlns="http://www.w3.org/2000/svg"
 width="200.000000pt" height="115.000000pt" viewBox="0 0 200.000000 115.000000"
 preserveAspectRatio="xMidYMid meet">

<g transform="translate(0.000000,115.000000) scale(0.100000,-0.100000)"
fill="#000000" stroke="none">
<path d="M474 1040 c-12 -4 -31 -21 -44 -37 -18 -23 -21 -37 -18 -82 6 -67 38
-101 96 -101 52 0 68 13 56 41 -8 16 -19 23 -39 24 -21 0 -33 7 -41 24 -18 36
-3 65 37 71 28 4 35 10 37 33 2 17 -1 27 -10 27 -7 0 -22 2 -33 5 -11 2 -30 0
-41 -5z"/>
<path d="M847 1043 c-4 -3 -7 -19 -7 -35 0 -23 -4 -28 -23 -28 -35 0 -60 -33
-60 -80 0 -61 22 -79 95 -78 64 1 81 15 60 49 -7 10 -12 52 -12 93 0 58 -3 75
-16 80 -20 8 -29 8 -37 -1z m-7 -143 c0 -16 -4 -30 -9 -30 -12 0 -24 37 -16
50 12 20 25 10 25 -20z"/>
<path d="M954 1035 c-9 -23 4 -47 23 -43 11 2 19 14 21 31 3 22 -1 27 -18 27
-11 0 -23 -7 -26 -15z"/>
<path d="M611 954 c-23 -30 -27 -64 -10 -97 16 -30 28 -37 65 -37 42 0 69 31
69 80 0 76 -80 110 -124 54z m64 -54 c0 -13 -6 -25 -12 -27 -9 -3 -13 6 -13
27 0 21 4 30 13 28 6 -3 12 -15 12 -28z"/>
<path d="M950 900 c0 -79 0 -80 25 -80 25 0 25 1 25 80 0 79 0 80 -25 80 -25
0 -25 -1 -25 -80z"/>
<path d="M1036 911 c8 -87 9 -91 39 -91 24 0 25 3 25 55 0 42 3 55 15 55 12 0
15 -13 15 -55 0 -52 1 -55 25 -55 24 0 25 2 25 69 0 43 -5 72 -12 79 -7 5 -41
10 -76 9 l-62 0 6 -66z"/>
<path d="M1237 968 c-54 -41 -32 -148 30 -148 12 0 23 -4 23 -10 0 -5 -16 -10
-36 -10 -28 0 -35 -3 -32 -17 5 -26 83 -30 109 -7 16 14 19 31 19 99 0 50 -5
86 -12 93 -16 16 -80 15 -101 0z m53 -68 c0 -30 -13 -40 -25 -20 -8 13 4 50
16 50 5 0 9 -13 9 -30z"/>
<path d="M1067 609 c-43 -26 -61 -114 -33 -168 24 -46 92 -66 130 -38 27 20
13 61 -18 53 -34 -8 -59 15 -58 54 1 39 2 41 44 49 27 6 33 12 33 31 0 22 -5
25 -40 27 -22 2 -48 -2 -58 -8z"/>
<path d="M1212 508 c3 -105 4 -113 23 -113 17 0 21 8 25 55 3 30 10 55 15 55
6 0 12 -25 15 -55 4 -47 8 -55 25 -55 18 0 20 8 23 67 3 62 1 68 -22 84 -14 9
-33 14 -41 10 -12 -4 -15 3 -15 29 0 31 -3 35 -25 35 l-26 0 3 -112z"/>
<path d="M1397 553 c-28 -7 -16 -37 18 -44 30 -7 30 -7 3 -8 -55 -2 -79 -67
-35 -95 28 -18 115 -15 127 5 6 9 4 22 -5 36 -8 12 -15 38 -15 57 0 48 -32 65
-93 49z m43 -98 c0 -8 -4 -15 -9 -15 -13 0 -22 16 -14 24 11 11 23 6 23 -9z"/>
<path d="M1537 554 c-10 -11 -8 -54 2 -54 6 0 11 -24 13 -52 3 -46 6 -53 26
-56 21 -3 22 0 22 52 0 42 4 56 14 56 11 0 16 -15 18 -52 3 -46 6 -53 26 -56
21 -3 22 0 22 52 0 42 4 56 14 56 11 0 16 -15 18 -52 3 -46 6 -53 26 -56 21
-3 22 0 22 66 0 90 -11 101 -100 96 -36 -2 -69 -4 -75 -5 -5 -1 -17 2 -26 5
-8 4 -18 3 -22 0z"/>
<path d="M1789 543 c-7 -8 -7 -18 0 -32 6 -11 11 -51 11 -89 0 -49 4 -73 15
-82 21 -17 45 -5 45 23 0 19 7 26 30 31 54 10 76 112 33 148 -19 16 -121 17
-134 1z m96 -73 c0 -13 -6 -25 -12 -27 -9 -3 -13 6 -13 27 0 21 4 30 13 28 6
-3 12 -15 12 -28z"/>
</g>
</svg>
